<svg width="113" height="113" viewBox="0 0 113 113" fill="none" xmlns="http://www.w3.org/2000/svg">
<circle cx="56.5" cy="56.5" r="55.0696" fill="#D5CECE" stroke="#7E7B7B" stroke-width="2.86076"/>
<path d="M28.6075 78.6709C28.6075 74.8773 30.1145 71.2391 32.797 68.5566C35.4795 65.8741 39.1177 64.3671 42.9113 64.3671H71.5189C75.3125 64.3671 78.9508 65.8741 81.6332 68.5566C84.3157 71.2391 85.8227 74.8773 85.8227 78.6709C85.8227 80.5677 85.0692 82.3868 83.728 83.728C82.3867 85.0693 80.5676 85.8228 78.6708 85.8228H35.7594C33.8626 85.8228 32.0435 85.0693 30.7023 83.728C29.361 82.3868 28.6075 80.5677 28.6075 78.6709Z" stroke="#7E7B7B" stroke-width="5.36392" stroke-linejoin="round"/>
<path d="M57.2152 50.0633C63.14 50.0633 67.943 45.2603 67.943 39.3355C67.943 33.4106 63.14 28.6076 57.2152 28.6076C51.2903 28.6076 46.4873 33.4106 46.4873 39.3355C46.4873 45.2603 51.2903 50.0633 57.2152 50.0633Z" stroke="#7E7B7B" stroke-width="5.36392"/>
<circle cx="57" cy="57" r="50" fill="#E45050"/>
<path d="M91 92.6966C72.1944 108.565 45.0216 109.661 25 95.3565L38.8795 88.0653C39.5406 87.7185 40.1717 87.3176 40.7665 86.8666C40.9473 86.7295 41.1281 86.5749 41.3002 86.4379C42.79 85.1888 43.9927 83.6329 44.8262 81.8765C45.4553 80.5259 45.8498 79.0781 45.9928 77.5951C46.0912 76.6331 46.1195 75.6651 46.0774 74.699C46.0162 73.0308 45.8383 71.3713 45.7479 69.7002C45.6924 68.7786 45.6429 67.854 45.5933 66.9324L46.1766 67.2037L47.7281 67.9182L48.4369 68.0057L56.6205 69.0235L65.7578 70.161L66.449 79.4645L66.6736 82.5064L66.7844 83.9851V84.0813L70.3717 85.3588L91 92.6966Z" fill="#F2A196"/>
<path d="M91 92.6966C72.1944 108.565 45.0216 109.661 25 95.3564L38.8795 88.0652C39.5406 87.7185 40.1717 87.3175 40.7665 86.8666C40.9473 86.7295 41.1281 86.5749 41.3002 86.4378C48.3844 91.0138 57.8833 93.6853 65.8191 89.6781C67.709 88.7273 69.418 87.2282 70.3834 85.3704L91 92.6966Z" fill="url(#paint0_linear_59_550)"/>
<path d="M66.7961 84.093C63.7571 84.4138 60.3127 83.6847 57.0638 81.999C50.9625 78.8287 47.5152 72.9812 48.4368 68.0173L56.6205 69.0352L65.7578 70.1726L66.449 79.4762L66.7961 84.093Z" fill="#E88870"/>
<path d="M80.0895 35.869C80.8936 37.388 81.363 39.0617 81.4661 40.7774C81.8044 46.9458 78.4679 53.0704 74.6357 57.6784L74.554 57.7776C71.6113 61.1578 66.7757 62.1319 62.7802 63.698C61.3423 64.2638 45.7508 69.4581 45.7946 70.438C45.7946 70.2251 44.1701 68.7523 42.1256 66.9791C38.4216 63.7609 35.8298 59.4542 34.7207 54.6744C33.7991 50.6439 34.1957 45.5983 35.2106 41.6086C37.0422 34.4165 42.8489 29.5519 49.7756 27.4637C56.4835 25.4425 65.2096 25.3434 71.6667 28.2511C75.1227 29.8085 78.3338 32.4888 80.0895 35.869Z" fill="#030303"/>
<circle cx="42.3589" cy="58.915" r="4.95802" fill="#F2A196"/>
<circle cx="43.9308" cy="58.8421" r="4.43889" fill="#E88870"/>
<path d="M43.788 54.164L44.8554 62.9135L45.5554 68.6415C45.812 70.7501 46.6928 71.9779 48.1452 73.5995C50.7309 76.4925 53.9581 78.7398 57.5683 80.1616C61.0127 81.5148 65.7666 82.8039 69.3072 81.1823C72.9236 79.5229 73.9181 75.3319 75.0031 71.8496C76.088 68.3673 77.0738 64.5351 76.8492 60.834C76.5576 55.8089 75.0993 53.047 75.0993 53.047L75.7993 47.2141C76.0647 45.0121 76.4322 42.7052 75.7993 40.5295C75.0643 38.0359 73.1132 37.0297 71.4625 35.2302C67.5719 40.7278 60.9252 44.0351 55.1302 47.357C52.1408 49.0689 43.788 54.164 43.788 54.164Z" fill="#F2A196"/>
<path d="M65.4982 53.1491C65.4807 53.2512 69.8934 64.1851 69.8934 64.1851L64.6787 64.6721" stroke="#00214E" stroke-width="0.291648"/>
<path d="M52.0037 51.8396C54.6764 51.1621 57.4474 50.9597 60.1902 51.2417" stroke="#00214E" stroke-width="0.291648"/>
<path d="M70.2288 50.7459C71.8766 50.283 73.5877 50.0861 75.2976 50.1626" stroke="#00214E" stroke-width="0.291648"/>
<path d="M55.3577 69.1723C56.3543 67.3477 57.8242 65.8254 59.6128 64.7655" stroke="#00214E" stroke-width="0.291648"/>
<path d="M59.9919 55.9198C59.9001 57.1311 59.1652 58.2 58.0671 58.7196C57.4761 58.9658 56.8538 59.1287 56.218 59.2037" stroke="#00214E" stroke-width="0.291648"/>
<path d="M79.2728 47.5145C79.4886 44.1926 79.1328 40.7424 77.5637 37.8055C76.6057 35.9794 75.1495 34.4625 73.364 33.4308C72.0953 32.7191 69.2809 31.538 67.9889 32.7366C65.3174 35.1952 71.3137 41.1594 72.8419 42.6673C74.758 44.5646 76.9211 46.195 79.2728 47.5145Z" fill="#030303"/>
<path d="M69.5259 54.8261C69.838 55.5558 70.2354 56.246 70.71 56.8822C71.1742 57.4674 71.8435 57.8543 72.5824 57.9642" stroke="#00214E" stroke-width="0.291648"/>
<path d="M58.8254 67.9999C58.9002 67.8684 59.0264 67.7741 59.1737 67.7398C59.321 67.7055 59.476 67.7342 59.6012 67.819C60.2224 68.2157 61.3715 69.0702 62.958 69.3123C65.1221 69.6418 66.9449 68.7027 67.4144 69.2364C67.6769 69.5281 67.3882 69.9306 66.8311 70.4439C65.6325 71.4249 64.0894 71.8822 62.5497 71.7125C60.4703 71.4209 58.8137 69.0877 58.7758 68.2507C58.7703 68.1642 58.7873 68.0777 58.8254 67.9999Z" fill="white"/>
<path d="M56.9413 54.2661C58.7174 54.167 58.8924 56.8909 57.1162 57.0105H57.0375C55.2614 57.1097 55.0864 54.3857 56.8596 54.2661H56.9413Z" fill="#00214E"/>
<path d="M71.5558 53.1199C73.2066 53.0266 73.367 55.5465 71.7191 55.666H71.6462C69.9984 55.7594 69.8351 53.2424 71.4829 53.1229H71.5558V53.1199Z" fill="#00214E"/>
<defs>
<linearGradient id="paint0_linear_59_550" x1="29.9356" y1="107.012" x2="84.4671" y2="80.5001" gradientUnits="userSpaceOnUse">
<stop stop-color="#16243F"/>
<stop offset="1" stop-color="#6878B1"/>
</linearGradient>
</defs>
</svg>
