<svg width="29" height="29" viewBox="0 0 29 29" fill="none" xmlns="http://www.w3.org/2000/svg">
<path fill-rule="evenodd" clip-rule="evenodd" d="M17.0013 23.8368C14.8854 24.4043 12.6396 24.2363 10.6318 23.3603C8.6239 22.4844 6.9731 20.9525 5.94984 19.0155C5.80034 18.7319 5.5443 18.5193 5.23804 18.4245C4.93178 18.3296 4.6004 18.3604 4.31678 18.5099C4.03316 18.6594 3.82055 18.9154 3.72572 19.2217C3.63088 19.5279 3.66159 19.8593 3.81109 20.1429C6.38484 25.0246 12.0713 27.66 17.6272 26.1725C24.0736 24.4446 27.898 17.8181 26.1713 11.3728C24.4434 4.92638 17.8181 1.102 11.3728 2.82871C8.8188 3.51236 6.55947 5.01483 4.94129 7.10577C3.32311 9.1967 2.43539 11.7607 2.41426 14.4045C2.4058 15.4957 3.61655 16.0986 4.48413 15.515L7.71401 13.3388C8.93201 12.5171 8.11518 10.6188 6.68209 10.939L5.40368 11.2242C5.9672 9.66027 6.92451 8.26808 8.18315 7.18212C9.44179 6.09616 10.9592 5.35313 12.5888 5.02482C14.2185 4.6965 15.9052 4.79399 17.4862 5.30787C19.0671 5.82174 20.4888 6.73464 21.614 7.95837C22.7391 9.18211 23.5297 10.6753 23.9093 12.2938C24.2889 13.9122 24.2447 15.6012 23.7809 17.1976C23.3172 18.794 22.4497 20.2438 21.262 21.407C20.0744 22.5702 18.6069 23.4075 17.0013 23.838V23.8368Z" fill="#0040E3"/>
</svg>
